<?xml version="1.0"?>
<svg width="48.96" height="48.96" xmlns="http://www.w3.org/2000/svg" xmlns:svg="http://www.w3.org/2000/svg">
 <!-- Created with SVG-edit - https://github.com/SVG-Edit/svgedit-->
 <defs>undefinedundefined</defs>
 <g class="layer">
  <title>Layer 1</title>
  <g filter="url(#filter0_d_1_208)" id="svg_1">
   <rect fill="#7F56D9" height="49.96" id="svg_2" rx="12.24" width="47.96" x="0.36" y="-1.06"/>
   <g clip-path="url(#clip0_1_208)" id="svg_3">
    <path d="m27.14,34.05l-6.17,0l-0.73,-2.06l-11.1,0l0,-19.67c0,-0.92 0.73,-1.68 1.62,-1.68l27.48,0c0.88,0 1.62,0.77 1.62,1.68l0,19.75l-11.24,0l-1.47,1.99zm-5.37,-1.14l4.85,0l1.47,-2.07l10.66,0l0,-18.52c0,-0.31 -0.23,-0.54 -0.52,-0.54l-27.48,0c-0.29,0 -0.51,0.23 -0.51,0.54l0,18.59l10.79,0l0.73,2z" fill="white" id="svg_4"/>
    <path d="m36.84,36.35l-24.69,0c-2.64,0 -4.78,-2.22 -4.78,-4.97l0,-0.61l13.6,0l0.73,2.06l4.85,0l1.47,-2.06l13.52,0l0,0.61c0.07,2.74 -2.14,4.97 -4.7,4.97zm-28.29,-4.36c0.29,1.84 1.76,3.21 3.6,3.21l24.61,0c1.84,0 3.38,-1.38 3.6,-3.21l-11.75,0l-1.47,2.06l-6.17,0l-0.73,-2.06l-11.69,0z" fill="white" id="svg_5"/>
    <path d="m19.13,14.7l-5.65,0l0,5.12l5.65,0l0,-5.12z" fill="white" id="svg_6"/>
    <path d="m19.65,20.35l-6.76,0l0,-6.28l6.76,0l0,6.28zm-5.66,-1.14l4.56,0l0,-3.98l-4.56,0l0,3.98z" fill="white" id="svg_7"/>
    <path d="m19.13,22.81l-5.65,0l0,5.12l5.65,0l0,-5.12z" fill="white" id="svg_8"/>
    <path d="m19.65,28.54l-6.76,0l0,-6.28l6.76,0l0,6.28zm-5.66,-1.14l4.56,0l0,-3.99l-4.56,0l0,3.99z" fill="white" id="svg_9"/>
    <path d="m35.81,16.6l-13.16,0l0,1.15l13.16,0l0,-1.15z" fill="white" id="svg_10"/>
    <path d="m35.81,24.79l-13.16,0l0,1.15l13.16,0l0,-1.15z" fill="white" id="svg_11"/>
   </g>
  </g>
 </g>
</svg>