<svg display="none" xmlns="http://www.w3.org/2000/svg">

<symbol id="duolingvo" viewBox="0 0 154 36">
  <g>
  <path
  d="M133.037 18C133.037 12.3072 137.36 8.29517 143.088 8.29517C148.816 8.29517 153.138 12.3072 153.138 18C153.138 23.6928 148.816 27.7048 143.088 27.7048C137.36 27.7048 133.037 23.6385 133.037 18ZM147.465 18C147.465 15.3434 145.789 13.3916 143.142 13.3916C140.494 13.3916 138.819 15.3434 138.819 18C138.819 20.6566 140.494 22.6084 143.142 22.6084C145.789 22.6084 147.465 20.7108 147.465 18ZM129.254 13.5C129.633 14.259 129.795 15.0723 129.795 15.9397C129.795 18 128.714 19.8976 126.985 21.3615C129.363 22.5 130.767 25.265 130.767 27.8675C130.767 32.747 126.823 36 120.825 36C114.827 36 110.882 32.8013 110.882 27.8675C110.828 25.1567 112.287 22.6627 114.665 21.3615C112.881 19.8976 111.855 18 111.855 15.9397C111.855 11.6566 115.205 8.51205 120.5 8.51205C123.635 8.51205 124.553 9.05422 126.336 9.05422C127.525 9.10843 128.768 8.78313 129.795 8.13253C130.173 7.91568 130.551 7.753 130.984 7.753C131.686 7.753 132.064 8.45783 132.064 9.3253C132.227 11.2229 131.038 12.9036 129.254 13.5ZM125.202 27.7048C125.202 25.5363 123.527 24.0181 120.879 24.0181C118.231 24.0181 116.556 25.482 116.556 27.7048C116.556 29.765 118.393 31.3915 120.879 31.3915C123.364 31.3915 125.202 29.765 125.202 27.7048ZM117.366 16.2651C117.421 18.1627 119.042 19.6807 120.987 19.6265C122.824 19.5723 124.229 18.1084 124.337 16.2651C124.337 14.3133 122.932 12.9578 120.879 12.9578C118.826 12.9578 117.366 14.259 117.366 16.2651ZM108.288 18.3795V25.1567C108.288 26.4578 107.802 27 106.397 27H104.506C103.101 27 102.615 26.4578 102.615 25.1567V18.5422C102.615 16.8615 102.344 15.6687 101.75 14.9096C101.048 14.0422 99.9669 13.6084 98.886 13.6627C97.7513 13.6084 96.6707 14.0964 95.9142 14.9096C95.2656 15.6687 94.8333 16.8615 94.8333 18.4879V25.1025C94.8333 26.4578 94.2391 26.9457 92.9422 26.9457H91.051C89.7541 26.9457 89.1596 26.4578 89.1596 25.1025V9.92167C89.1596 9.05422 89.5919 8.6747 90.2404 8.6747C91.2129 8.6747 92.5639 9.48795 93.5905 11.0603C95.1578 9.3253 97.3731 8.3494 99.6966 8.3494C102.453 8.3494 104.668 9.3253 106.127 10.9518C107.586 12.5783 108.288 14.8012 108.288 18.3795ZM78.7848 3.09035C78.7848 1.35542 80.2436 0 81.9188 0C81.9728 0 81.9728 0 82.0269 0C83.7021 0.108434 84.999 1.57229 84.8908 3.253C84.7827 4.93372 83.3238 6.23495 81.6487 6.1265C80.0276 6.0723 78.7848 4.71688 78.7848 3.09035ZM79.163 25.1567V10.8976C79.163 9.59638 79.6494 9 81.0542 9H82.9456C84.3504 9 84.8368 9.54218 84.8368 10.8976V25.1567C84.8368 26.4578 84.3504 27 82.9456 27H81.0542C79.6494 27 79.163 26.4578 79.163 25.1567ZM69.1662 25.1567V7.26505C69.1662 2.76505 71.6519 0.216868 73.7593 0.216868C74.4076 0.216868 74.84 0.650603 74.84 1.46386V25.1567C74.84 26.512 74.2998 27 72.9488 27H71.0576C69.7607 27 69.1662 26.512 69.1662 25.1567ZM45.8228 18C45.8228 12.3072 50.1455 8.29517 55.8734 8.29517C61.6012 8.29517 65.924 12.3072 65.924 18C65.924 23.6928 61.6012 27.7048 55.8734 27.7048C50.1455 27.7048 45.8228 23.6385 45.8228 18ZM60.1962 18C60.1962 15.3434 58.521 13.3916 55.8734 13.3916C53.2255 13.3916 51.5506 15.3434 51.5506 18C51.5506 20.6566 53.2255 22.6084 55.8734 22.6084C58.521 22.6084 60.1962 20.7108 60.1962 18ZM42.9048 10.8976V26.0783C42.9048 26.9458 42.4725 27.3253 41.8239 27.3253C40.8514 27.3253 39.5004 26.512 38.5276 24.994C37.0147 26.729 34.8534 27.7048 32.5297 27.6505C30.3684 27.7048 28.3151 26.9458 26.694 25.482C25.0188 23.8554 24.1001 21.3615 24.1001 17.7831V10.8976C24.1001 9.59638 24.5864 9 25.9913 9H27.8827C29.2875 9 29.7739 9.54218 29.7739 10.8976V17.2952C29.7739 19.4639 30.1522 20.6024 30.8546 21.3615C31.5031 22.0121 32.4756 22.3916 33.3943 22.3374C34.4211 22.3374 35.3936 21.9578 36.096 21.1988C36.7987 20.4397 37.1769 19.247 37.1769 17.4036V10.8976C37.1769 9.54218 37.7712 9 39.0681 9H40.9595C42.3102 9 42.9048 9.54218 42.9048 10.8976ZM20.2095 1.46386V26.0783C20.2095 26.9458 19.7772 27.3253 19.1288 27.3253C18.1562 27.3253 16.8052 26.512 15.8326 25.0483C14.6438 26.4578 12.2122 27.7048 9.40228 27.7048C3.78253 27.7048 0 23.5843 0 18C0 12.4157 3.89061 8.29517 9.40228 8.29517C11.2395 8.29517 13.0227 8.83735 14.5898 9.86747V7.26505C14.5898 2.76505 17.1295 0.216868 19.1828 0.216868C19.8313 0.216868 20.2095 0.650603 20.2095 1.46386ZM14.5898 18C14.5898 15.235 12.6445 13.3916 10.2128 13.3916C7.7812 13.3916 5.78186 15.235 5.78186 18C5.78186 20.765 7.72716 22.6084 10.2128 22.6084C12.6985 22.6084 14.5898 20.8193 14.5898 18Z"
            fill-opacity="0.4"
          />
  </g>
</symbol>

<symbol id="codecov" viewBox="0 0 187 36">
  <g>
  <path d="M59.5866 9.0923C62.2596 9.0923 64.3978 9.98265 66.1798 11.8227L66.2986 11.9414L68.6746 9.6265L68.6151 9.5078C66.4768 7.13355 63.2098 5.8277 59.4678 5.8277C52.1026 5.8277 46.6973 10.9324 46.6973 17.9958C46.6973 25.0592 52.0431 30.1637 59.4083 30.1637C63.1506 30.1637 66.4173 28.858 68.6151 26.4242L68.6746 26.3055L66.2986 23.9907L66.1798 24.1094C64.3978 25.9495 62.2001 26.8993 59.5866 26.8993C54.2408 26.8993 50.3801 23.1597 50.3801 17.9958C50.3801 12.8318 54.3003 9.0923 59.5866 9.0923ZM78.8316 27.0772C75.3271 27.0772 72.8918 24.5249 72.8918 20.9636C72.8918 17.3428 75.3271 14.8498 78.8316 14.8498C82.3361 14.8498 84.7713 17.3428 84.7713 20.9636C84.7713 24.5843 82.3361 27.0772 78.8316 27.0772ZM78.8316 11.7633C73.3076 11.7633 69.3278 15.6215 69.3278 20.9636C69.3278 26.3055 73.3076 30.1637 78.8316 30.1637C84.3556 30.1637 88.3351 26.3055 88.3351 20.9636C88.3351 15.6215 84.2961 11.7633 78.8316 11.7633ZM99.0268 27.0772C95.5223 27.0772 93.0276 24.5249 93.0276 20.9042C93.0276 17.2835 95.4628 14.7311 99.0268 14.7311C102.531 14.7311 104.967 17.2835 104.967 20.9042C104.967 24.5249 102.531 27.0772 99.0268 27.0772ZM104.967 14.2563C103.482 12.535 101.343 11.6446 98.7893 11.6446C93.3246 11.6446 89.5231 15.4434 89.5231 20.9042C89.5231 26.365 93.3246 30.1637 98.7893 30.1637C101.403 30.1637 103.66 29.1548 105.085 27.374V29.9263H108.471V4.64057H104.907L104.967 14.2563ZM119.875 14.7311C122.786 14.7311 124.984 16.6899 125.399 19.539H114.411C114.767 16.6899 116.906 14.7311 119.875 14.7311ZM119.875 11.7633C114.648 11.7633 110.906 15.6215 110.906 20.9636C110.906 26.365 114.827 30.1637 120.529 30.1637C123.499 30.1637 125.934 29.1548 127.597 27.2553L127.657 27.196L125.696 24.9404L125.578 25.0592C124.33 26.4242 122.667 27.1365 120.588 27.1365C117.262 27.1365 114.827 25.2373 114.351 22.21H128.607V22.0913C128.666 21.7945 128.666 21.3791 128.666 21.0823C128.726 15.5621 125.043 11.7633 119.875 11.7633ZM144.941 24.5843C143.872 26.187 142.209 27.0772 140.13 27.0772C136.507 27.0772 134.072 24.5843 134.072 20.9636C134.072 17.3428 136.566 14.8498 140.13 14.8498C142.209 14.8498 143.872 15.6809 144.941 17.3428L145.001 17.4615L147.733 15.7402L147.674 15.6215C146.248 13.1879 143.516 11.7633 140.19 11.7633C134.606 11.7633 130.508 15.6215 130.508 20.9636C130.508 26.3055 134.606 30.1637 140.19 30.1637C143.516 30.1637 146.248 28.7393 147.674 26.2463L147.733 26.1275L145.001 24.4656L144.941 24.5843ZM158.425 27.0772C154.92 27.0772 152.485 24.5249 152.485 20.9636C152.485 17.3428 154.92 14.8498 158.425 14.8498C161.929 14.8498 164.364 17.3428 164.364 20.9636C164.364 24.5843 161.929 27.0772 158.425 27.0772ZM158.425 11.7633C152.901 11.7633 148.921 15.6215 148.921 20.9636C148.921 26.3055 152.901 30.1637 158.425 30.1637C163.949 30.1637 167.928 26.3055 167.928 20.9636C167.928 15.6215 163.889 11.7633 158.425 11.7633ZM182.897 11.7633L176.838 25.6528L170.898 11.7633H167.275L175.056 29.5107L175.115 29.5702H178.561L186.342 11.7633H182.897ZM19.0327 0C8.61976 0 0.138306 8.3916 0.138306 18.6294V18.7133L3.32936 20.5595H3.41333C5.42873 19.2168 7.86401 18.7133 10.2993 19.1329C11.9788 19.4685 13.5743 20.2238 14.8339 21.3986L15.4217 21.9021L15.7576 21.2308C16.0935 20.5595 16.4294 19.972 16.7653 19.3846C16.9333 19.1329 17.1012 18.965 17.2692 18.7133L17.6051 18.2937L17.1852 17.958C15.4217 16.5315 13.3224 15.5245 11.055 15.1049C8.87168 14.6853 6.68836 14.7692 4.67296 15.4405C6.18451 8.8112 12.0627 4.1119 19.0327 4.1119C22.9795 4.1119 26.6743 5.62237 29.4456 8.3916C31.4611 10.3217 32.8046 12.7552 33.3923 15.4405C32.1328 15.021 30.7891 14.8532 29.4456 14.8532H29.1936C28.6898 14.8532 28.1858 14.937 27.5981 14.937H27.5141C27.3461 14.937 27.0943 15.021 26.9263 15.021C26.5903 15.1049 26.3386 15.1049 26.0026 15.1888L25.7506 15.2727C25.4988 15.3567 25.2468 15.4405 24.9949 15.5245H24.9109C24.3231 15.6923 23.8192 15.9441 23.2314 16.1958C22.9795 16.2797 22.7276 16.4475 22.4756 16.6154H22.3917C21.132 17.3706 19.9564 18.2937 19.0327 19.4685L18.9487 19.6364C18.6968 19.972 18.5288 20.2238 18.3609 20.3916C18.1929 20.5595 18.1089 20.8112 17.941 21.0629L17.857 21.2308C17.6891 21.4825 17.6051 21.7343 17.5211 21.9021V21.986C17.2692 22.4895 17.0173 23.0769 16.8493 23.6643V23.7482C16.4294 25.091 16.1775 26.5175 16.1775 28.028V28.1957C16.1775 28.3637 16.1775 28.6155 16.1775 28.7833C16.1775 28.8673 16.1775 28.951 16.1775 29.035C16.1775 29.119 16.1775 29.2868 16.1775 29.3708V29.4545V29.6225C16.1775 29.7902 16.2615 30.042 16.2615 30.2097C16.6814 32.2237 17.6051 34.1538 19.0327 35.916L19.1166 36L19.2006 35.916C19.7884 35.2448 21.132 33.1468 21.3 31.888C20.6282 30.6292 20.2923 29.2028 20.2923 27.8603C20.2923 23.1609 23.9872 19.2168 28.7738 18.965H29.1096C31.0411 18.8811 32.9726 19.4685 34.5681 20.5595H34.6521L37.8431 18.7133V18.6294C37.8431 13.6783 35.9116 8.97902 32.3008 5.45455C28.7738 1.93007 24.0712 0 19.0327 0Z"  fill-opacity="0.4"/>
        </g>
      </symbol>

      <symbol id="arrow-right" viewBox="0 0 8 13">
        <g>
  <path d="M1.5 11.5L6.5 6.5L1.5 1.5"  stroke-width="1.5" stroke-linecap="round" stroke-linejoin="round"/>
        </g>
</symbol>

<symbol id="facebook" viewBox="0 0 24 25">
  <g>
  <path d="M24 12.2856C24 5.65822 18.6274 0.285645 12 0.285645C5.37258 0.285645 0 5.65822 0 12.2856C0 18.2751 4.3882 23.2396 10.125 24.1399V15.7544H7.07812V12.2856H10.125V9.6419C10.125 6.6344 11.9166 4.97314 14.6576 4.97314C15.9701 4.97314 17.3438 5.20752 17.3438 5.20752V8.16064H15.8306C14.34 8.16064 13.875 9.08572 13.875 10.0356V12.2856H17.2031L16.6711 15.7544H13.875V24.1399C19.6118 23.2396 24 18.2751 24 12.2856Z" fill="#98A2B3"/>
  </g>
</symbol>

<symbol id="github" viewBox="0 0 24 24">
  <g>
  <path fill-rule="evenodd" clip-rule="evenodd" d="M12 0.285645C5.3724 0.285645 0 5.66644 0 12.306C0 17.616 3.438 22.122 8.2068 23.7108C8.8068 23.8212 9.0252 23.4504 9.0252 23.1312C9.0252 22.8468 9.0156 22.0896 9.0096 21.0876C5.6712 21.8136 4.9668 19.476 4.9668 19.476C4.422 18.0864 3.6348 17.7168 3.6348 17.7168C2.5452 16.9728 3.7176 16.9872 3.7176 16.9872C4.9212 17.0712 5.5548 18.2256 5.5548 18.2256C6.6252 20.0616 8.364 19.5312 9.0468 19.224C9.1572 18.4476 9.4668 17.9184 9.81 17.6184C7.146 17.3148 4.344 16.2828 4.344 11.6772C4.344 10.3656 4.812 9.29164 5.5788 8.45164C5.4552 8.14804 5.0436 6.92524 5.6964 5.27164C5.6964 5.27164 6.7044 4.94764 8.9964 6.50284C9.97532 6.23586 10.9853 6.09988 12 6.09844C13.02 6.10324 14.046 6.23644 15.0048 6.50284C17.2956 4.94764 18.3012 5.27044 18.3012 5.27044C18.9564 6.92524 18.5436 8.14804 18.4212 8.45164C19.1892 9.29164 19.6548 10.3656 19.6548 11.6772C19.6548 16.2948 16.848 17.3112 14.1756 17.6088C14.6064 17.9796 14.9892 18.7128 14.9892 19.8348C14.9892 21.4404 14.9748 22.7376 14.9748 23.1312C14.9748 23.4528 15.1908 23.8272 15.8004 23.7096C18.19 22.9082 20.2672 21.376 21.7386 19.3297C23.2099 17.2834 24.001 14.8264 24 12.306C24 5.66644 18.6264 0.285645 12 0.285645Z" fill="#98A2B3"/>

  </g>
</symbol>

<symbol id="dribble" viewBox="0 0 24 25">
  <g>
  <path fill-rule="evenodd" clip-rule="evenodd" d="M12 0.285645C5.37527 0.285645 0 5.66092 0 12.2856C0 18.9104 5.37527 24.2856 12 24.2856C18.6117 24.2856 24 18.9104 24 12.2856C24 5.66092 18.6117 0.285645 12 0.285645ZM19.9262 5.8171C21.3579 7.56113 22.217 9.78672 22.243 12.1945C21.9046 12.1295 18.5206 11.4396 15.1106 11.8692C15.0325 11.7 14.9675 11.5177 14.8894 11.3355C14.6811 10.841 14.4469 10.3334 14.2126 9.85182C17.9869 8.31604 19.705 6.10343 19.9262 5.8171ZM12 2.05571C14.603 2.05571 16.9848 3.03185 18.7939 4.63272C18.6117 4.89302 17.0629 6.96244 13.4186 8.32902C11.7397 5.24443 9.87855 2.71948 9.5922 2.32903C10.3601 2.14681 11.1671 2.05571 12 2.05571ZM7.63995 3.01883C7.91325 3.38326 9.73538 5.92122 11.4404 8.94072C6.65076 10.2162 2.42083 10.1902 1.96529 10.1902C2.62907 7.01449 4.77657 4.37241 7.63995 3.01883ZM1.74404 12.2987C1.74404 12.1945 1.74404 12.0904 1.74404 11.9863C2.18655 11.9993 7.15835 12.0644 12.2733 10.5286C12.5727 11.1012 12.846 11.6869 13.1063 12.2726C12.9761 12.3117 12.8329 12.3507 12.7028 12.3897C7.41865 14.0947 4.60738 18.7542 4.3731 19.1446C2.7462 17.3355 1.74404 14.9277 1.74404 12.2987ZM12 22.5416C9.6312 22.5416 7.44469 21.7347 5.71367 20.3811C5.89588 20.0037 7.97827 15.995 13.757 13.9776C13.783 13.9646 13.7961 13.9646 13.8221 13.9516C15.2668 17.6869 15.8525 20.8236 16.0087 21.7216C14.7722 22.2552 13.4186 22.5416 12 22.5416ZM17.7136 20.7846C17.6096 20.1598 17.0629 17.1663 15.7223 13.483C18.9371 12.9754 21.7484 13.8084 22.0998 13.9256C21.6573 16.7759 20.0173 19.2357 17.7136 20.7846Z" fill="#98A2B3"/>

  </g>
</symbol>

<symbol id="twitter" viewBox="0 0 20 18">
  <g>
  <path d="M6.2918 17.125C13.8371 17.125 17.9652 10.8723 17.9652 5.45161C17.9652 5.27583 17.9613 5.09614 17.9535 4.92036C18.7566 4.33961 19.4496 3.62027 20 2.79614C19.2521 3.12889 18.458 3.34621 17.6449 3.44067C18.5011 2.92748 19.1421 2.12129 19.4492 1.17153C18.6438 1.64886 17.763 1.98557 16.8445 2.16724C16.2257 1.5097 15.4075 1.07432 14.5164 0.928437C13.6253 0.782549 12.711 0.93427 11.9148 1.36014C11.1186 1.78601 10.4848 2.46232 10.1115 3.28449C9.73825 4.10666 9.64619 5.02891 9.84961 5.90864C8.21874 5.8268 6.62328 5.40315 5.16665 4.66514C3.71002 3.92714 2.42474 2.89126 1.39414 1.62466C0.870333 2.52776 0.710047 3.59643 0.945859 4.61347C1.18167 5.63051 1.79589 6.5196 2.66367 7.10005C2.01219 7.07937 1.37498 6.90396 0.804688 6.58833V6.63911C0.804104 7.58685 1.13175 8.50555 1.73192 9.23904C2.3321 9.97252 3.16777 10.4755 4.09687 10.6625C3.49338 10.8277 2.85999 10.8517 2.2457 10.7329C2.50788 11.5479 3.01798 12.2608 3.70481 12.772C4.39164 13.2832 5.22093 13.5672 6.07695 13.5844C4.62369 14.726 2.82848 15.3452 0.980469 15.3422C0.652739 15.3417 0.325333 15.3216 0 15.2821C1.87738 16.4865 4.06128 17.1262 6.2918 17.125Z" fill="#98A2B3"/>

  </g>
</symbol>

<symbol id="linked-in" viewBox="">
  <g>
  <path d="M18.5195 0H1.47656C0.660156 0 0 0.644531 0 1.44141V18.5547C0 19.3516 0.660156 20 1.47656 20H18.5195C19.3359 20 20 19.3516 20 18.5586V1.44141C20 0.644531 19.3359 0 18.5195 0ZM5.93359 17.043H2.96484V7.49609H5.93359V17.043ZM4.44922 6.19531C3.49609 6.19531 2.72656 5.42578 2.72656 4.47656C2.72656 3.52734 3.49609 2.75781 4.44922 2.75781C5.39844 2.75781 6.16797 3.52734 6.16797 4.47656C6.16797 5.42188 5.39844 6.19531 4.44922 6.19531ZM17.043 17.043H14.0781V12.4023C14.0781 11.2969 14.0586 9.87109 12.5352 9.87109C10.9922 9.87109 10.7578 11.0781 10.7578 12.3242V17.043H7.79688V7.49609H10.6406V8.80078H10.6797C11.0742 8.05078 12.043 7.25781 13.4844 7.25781C16.4883 7.25781 17.043 9.23438 17.043 11.8047V17.043Z" fill="#98A2B3"/>
  </g>
</symbol>

<!-- <symbol id="tutors" viewBox="0 0 126 126">

     <path fill="#7F56D9" d="m72.59,59.69c-0.63,0 -1.21,-0.32 -1.59,-0.76c-0.38,0.44 -0.96,0.76 -1.59,0.76c-1.15,0 -2.11,-0.95 -2.11,-2.1l0,-15.56l0.96,0l0,15.56c0,0.64 0.51,1.15 1.15,1.15c0.63,0 1.08,-0.58 1.08,-1.15l0,-7.78l0.96,0l0,7.78c0,0.64 0.51,1.15 1.14,1.15c0.64,0 1.15,-0.51 1.15,-1.15l0,-15.56l0.96,0l0,15.56c0,1.15 -0.96,2.1 -2.11,2.1z" fill="#F5F5F4"/>
     <path d="m65.71,53.06l-17.66,0l0,-20.01l17.98,0l0,0.95l-17.02,0l0,18.11l16.7,0l0,0.95z" fill="#F5F5F4"/>
     <path d="m62.59,41.97l-10.97,0l0,0.96l10.97,0l0,-0.96z" fill="#F5F5F4"/>
     <path d="m62.59,45.22l-10.97,0l0,0.96l10.97,0l0,-0.96z" fill="#F5F5F4"/>
     <path d="m62.59,48.54l-10.97,0l0,0.95l10.97,0l0,-0.95z" fill="#F5F5F4"/>
   
</symbol> -->

  <symbol id="tutors" height="126" id="svg_3" viewBox="0 0 126 126" width="126" xmlns="http://www.w3.org/2000/svg">
   <g filter="url(#svg_2)">
    <rect fill="#7F56D9" height="48.96" rx="12.24" width="48.96" x="38.36" y="20.36"/>
    <g clip-path="url(#svg_1)">
     <path d="m75.27,50.26l-1.08,0l0,-0.96l1.08,0c0.77,0 1.4,-0.64 1.4,-1.4l0,-6.69c0,-1.22 -1.02,-2.24 -2.23,-2.24l-7.01,0c-1.21,0 -2.23,1.02 -2.23,2.24l0,6.69c0,0.76 0.64,1.4 1.4,1.4l1.09,0l0,0.96l-1.09,0c-1.34,0 -2.36,-1.09 -2.36,-2.36l0,-6.69c0,-1.79 1.4,-3.19 3.19,-3.19l7.08,0c1.78,0 3.18,1.4 3.18,3.19l0,6.69c0,1.34 -1.08,2.36 -2.42,2.36zm-4.33,-13.26c-1.92,0 -3.51,-1.6 -3.51,-3.51c0,-1.91 1.59,-3.5 3.51,-3.5c1.91,0 3.5,1.59 3.5,3.5c0,1.91 -1.53,3.51 -3.5,3.51zm0,-5.99c-1.41,0 -2.55,1.14 -2.55,2.55c0,1.4 1.14,2.55 2.55,2.55c1.4,0 2.55,-1.15 2.55,-2.55c0,-1.41 -1.15,-2.55 -2.55,-2.55z" fill="#F5F5F4"/>
     <path d="m72.59,59.69c-0.63,0 -1.21,-0.32 -1.59,-0.76c-0.38,0.44 -0.96,0.76 -1.59,0.76c-1.15,0 -2.11,-0.95 -2.11,-2.1l0,-15.56l0.96,0l0,15.56c0,0.64 0.51,1.15 1.15,1.15c0.63,0 1.08,-0.58 1.08,-1.15l0,-7.78l0.96,0l0,7.78c0,0.64 0.51,1.15 1.14,1.15c0.64,0 1.15,-0.51 1.15,-1.15l0,-15.56l0.96,0l0,15.56c0,1.15 -0.96,2.1 -2.11,2.1z" fill="#F5F5F4"/>
     <path d="m65.71,53.06l-17.66,0l0,-20.01l17.98,0l0,0.95l-17.02,0l0,18.11l16.7,0l0,0.95z" fill="#F5F5F4"/>
     <path d="m62.59,41.97l-10.97,0l0,0.96l10.97,0l0,-0.96z" fill="#F5F5F4"/>
     <path d="m62.59,45.22l-10.97,0l0,0.96l10.97,0l0,-0.96z" fill="#F5F5F4"/>
     <path d="m62.59,48.54l-10.97,0l0,0.95l10.97,0l0,-0.95z" fill="#F5F5F4"/>
    </g>
   </g>
   <defs>
    <filter color-interpolation-filters="sRGB" filterUnits="userSpaceOnUse" height="125.46" id="svg_2" width="125.46" x="0.11" y="0.47">
     <feFlood flood-opacity="0" result="BackgroundImageFix"/>
     <feColorMatrix in="SourceAlpha" result="hardAlpha" type="matrix" values="0 0 0 0 0 0 0 0 0 0 0 0 0 0 0 0 0 0 127 0"/>
     <feOffset dy="18.36"/>
     <feGaussianBlur stdDeviation="19.13"/>
     <feComposite in2="hardAlpha" operator="out"/>
     <feColorMatrix type="matrix" values="0 0 0 0 0.0509804 0 0 0 0 0.0470588 0 0 0 0 0.219608 0 0 0 0.15 0"/>
     <feBlend in2="BackgroundImageFix"/>
     <feBlend in="SourceGraphic" in2="effect1_dropShadow_1_223"/>
    </filter>
    <clipPath id="svg_1">
     <rect fill="white" height="30.6" transform="translate(47.54 29.5399)" width="30.6"/>
    </clipPath>
   </defs>
  </symbol>

<symbol id="" viewBox="">
  <g>
  
  </g>
</symbol>

</svg>