<?xml version="1.0"?>
<svg width="48.96" height="48.96" xmlns="http://www.w3.org/2000/svg" xmlns:svg="http://www.w3.org/2000/svg" xmlns:xlink="http://www.w3.org/1999/xlink">
 <!-- Created with SVG-edit - https://github.com/SVG-Edit/svgedit-->
 <defs>
  <symbol height="126" id="svg_3" viewBox="0 0 126 126" width="126" xmlns="http://www.w3.org/2000/svg">
   <g filter="url(#svg_2)">
    <rect fill="#7F56D9" height="48.96" rx="12.24" width="48.96" x="38.36" y="20.36"/>
    <g clip-path="url(#svg_1)">
     <path d="m75.27,50.26l-1.08,0l0,-0.96l1.08,0c0.77,0 1.4,-0.64 1.4,-1.4l0,-6.69c0,-1.22 -1.02,-2.24 -2.23,-2.24l-7.01,0c-1.21,0 -2.23,1.02 -2.23,2.24l0,6.69c0,0.76 0.64,1.4 1.4,1.4l1.09,0l0,0.96l-1.09,0c-1.34,0 -2.36,-1.09 -2.36,-2.36l0,-6.69c0,-1.79 1.4,-3.19 3.19,-3.19l7.08,0c1.78,0 3.18,1.4 3.18,3.19l0,6.69c0,1.34 -1.08,2.36 -2.42,2.36zm-4.33,-13.26c-1.92,0 -3.51,-1.6 -3.51,-3.51c0,-1.91 1.59,-3.5 3.51,-3.5c1.91,0 3.5,1.59 3.5,3.5c0,1.91 -1.53,3.51 -3.5,3.51zm0,-5.99c-1.41,0 -2.55,1.14 -2.55,2.55c0,1.4 1.14,2.55 2.55,2.55c1.4,0 2.55,-1.15 2.55,-2.55c0,-1.41 -1.15,-2.55 -2.55,-2.55z" fill="#F5F5F4"/>
     <path d="m72.59,59.69c-0.63,0 -1.21,-0.32 -1.59,-0.76c-0.38,0.44 -0.96,0.76 -1.59,0.76c-1.15,0 -2.11,-0.95 -2.11,-2.1l0,-15.56l0.96,0l0,15.56c0,0.64 0.51,1.15 1.15,1.15c0.63,0 1.08,-0.58 1.08,-1.15l0,-7.78l0.96,0l0,7.78c0,0.64 0.51,1.15 1.14,1.15c0.64,0 1.15,-0.51 1.15,-1.15l0,-15.56l0.96,0l0,15.56c0,1.15 -0.96,2.1 -2.11,2.1z" fill="#F5F5F4"/>
     <path d="m65.71,53.06l-17.66,0l0,-20.01l17.98,0l0,0.95l-17.02,0l0,18.11l16.7,0l0,0.95z" fill="#F5F5F4"/>
     <path d="m62.59,41.97l-10.97,0l0,0.96l10.97,0l0,-0.96z" fill="#F5F5F4"/>
     <path d="m62.59,45.22l-10.97,0l0,0.96l10.97,0l0,-0.96z" fill="#F5F5F4"/>
     <path d="m62.59,48.54l-10.97,0l0,0.95l10.97,0l0,-0.95z" fill="#F5F5F4"/>
    </g>
   </g>
   <defs>
    <filter color-interpolation-filters="sRGB" filterUnits="userSpaceOnUse" height="125.46" id="svg_2" width="125.46" x="0.11" y="0.47">
     <feFlood flood-opacity="0" result="BackgroundImageFix"/>
     <feColorMatrix in="SourceAlpha" result="hardAlpha" type="matrix" values="0 0 0 0 0 0 0 0 0 0 0 0 0 0 0 0 0 0 127 0"/>
     <feOffset dy="18.36"/>
     <feGaussianBlur stdDeviation="19.13"/>
     <feComposite in2="hardAlpha" operator="out"/>
     <feColorMatrix type="matrix" values="0 0 0 0 0.0509804 0 0 0 0 0.0470588 0 0 0 0 0.219608 0 0 0 0.15 0"/>
     <feBlend in2="BackgroundImageFix"/>
     <feBlend in="SourceGraphic" in2="effect1_dropShadow_1_223"/>
    </filter>
    <clipPath id="svg_1">
     <rect fill="white" height="30.6" transform="translate(47.54 29.5399)" width="30.6"/>
    </clipPath>
   </defs>
  </symbol>
 </defs>
 <g class="layer">
  <title>Layer 1</title>
  <use id="svg_4" transform="matrix(0.946129 0 0 0.959626 -108.362 -92.3106)" x="77.21" xlink:href="#svg_3" y="77.21"/>
 </g>
</svg>